<svg width="21" height="7" viewBox="0 0 21 7" fill="none" xmlns="http://www.w3.org/2000/svg">
<path d="M0.500082 3.49996L0.146528 3.85351C0.0527592 3.75974 8.2016e-05 3.63257 8.2016e-05 3.49996C8.2016e-05 3.36735 0.0527592 3.24017 0.146528 3.14641L0.500082 3.49996ZM3.32851 0.671532L2.97496 0.317978C3.04485 0.247835 3.134 0.200024 3.23109 0.180606C3.32819 0.161189 3.42887 0.171039 3.52036 0.208909C3.61186 0.246778 3.69004 0.310962 3.74502 0.393322C3.79999 0.475683 3.82927 0.572511 3.82914 0.671531L3.32851 0.671532ZM3.32851 6.32839L3.82914 6.32839C3.82927 6.42741 3.79999 6.52424 3.74502 6.6066C3.69004 6.68896 3.61186 6.75314 3.52036 6.79101C3.42887 6.82888 3.32819 6.83873 3.23109 6.81931C3.134 6.79989 3.04485 6.75208 2.97496 6.68194L3.32851 6.32839ZM3.32851 2.99933L20.2991 2.99933L20.2991 4.00059L3.32851 4.00059V2.99933ZM0.146528 3.14641L2.97496 0.317978L3.68206 1.02509L0.853636 3.85351L0.146528 3.14641ZM3.82914 0.671531V6.32839L2.82788 6.32839L2.82788 0.671532L3.82914 0.671531ZM2.97496 6.68194L0.146528 3.85351L0.853636 3.14641L3.68206 5.97483L2.97496 6.68194Z" fill="#333333" fill-opacity="0.4"/>
</svg>
