<svg width="21" height="7" viewBox="0 0 21 7" fill="none" xmlns="http://www.w3.org/2000/svg">
<path d="M20.0979 3.49996L20.4515 3.85351C20.5453 3.75974 20.5979 3.63257 20.5979 3.49996C20.5979 3.36735 20.5453 3.24017 20.4515 3.14641L20.0979 3.49996ZM17.2695 0.671532L17.6231 0.317978C17.5532 0.247835 17.464 0.200024 17.3669 0.180606C17.2698 0.161189 17.1692 0.171039 17.0777 0.208909C16.9862 0.246778 16.908 0.310962 16.853 0.393322C16.798 0.475683 16.7688 0.572511 16.7689 0.671531L17.2695 0.671532ZM17.2695 6.32839L16.7689 6.32839C16.7688 6.42741 16.798 6.52424 16.853 6.6066C16.908 6.68896 16.9862 6.75314 17.0777 6.79101C17.1692 6.82888 17.2698 6.83873 17.3669 6.81931C17.464 6.79989 17.5532 6.75208 17.6231 6.68194L17.2695 6.32839ZM17.2695 2.99933L0.29895 2.99933L0.29895 4.00059L17.2695 4.00059V2.99933ZM20.4515 3.14641L17.6231 0.317978L16.916 1.02509L19.7444 3.85351L20.4515 3.14641ZM16.7689 0.671531V6.32839L17.7701 6.32839L17.7701 0.671532L16.7689 0.671531ZM17.6231 6.68194L20.4515 3.85351L19.7444 3.14641L16.916 5.97483L17.6231 6.68194Z" fill="#333333"/>
</svg>
