<svg width="39" height="51" viewBox="0 0 39 51" fill="none" xmlns="http://www.w3.org/2000/svg">
<path d="M28.3052 40.1227C26.7509 40.1227 25.3661 39.7694 24.1508 39.0629C22.9356 38.3563 22.0453 37.2683 21.4801 35.7987L20.8866 39.7411H16.6898L21.4377 9.85474H25.7193L23.7693 22.2332C24.5324 21.1028 25.5074 20.2267 26.6943 19.6049C27.9096 18.9832 29.2661 18.6723 30.764 18.6723C33.1379 18.6723 35.0456 19.4777 36.4869 21.0886C37.9282 22.6713 38.6489 24.8333 38.6489 27.5746C38.6489 29.8638 38.2391 31.9693 37.4195 33.891C36.6 35.7845 35.413 37.2965 33.8586 38.427C32.3325 39.5574 30.4814 40.1227 28.3052 40.1227ZM27.627 36.8161C29.0683 36.8161 30.2835 36.4063 31.2727 35.5867C32.2618 34.7671 33.0108 33.6791 33.5195 32.3225C34.0564 30.9377 34.3249 29.4116 34.3249 27.7442C34.3249 25.8789 33.8727 24.4659 32.9684 23.505C32.0923 22.5158 30.8488 22.0213 29.2379 22.0213C27.7965 22.0213 26.5672 22.431 25.5498 23.2506C24.5606 24.0419 23.7976 25.13 23.2606 26.5148C22.7519 27.8714 22.4975 29.3975 22.4975 31.0932C22.4975 32.9584 22.9497 34.3856 23.8541 35.3748C24.7584 36.3356 26.0161 36.8161 27.627 36.8161Z" fill="#B76E79"/>
<path d="M8.44507 30.2679C6.07549 30.2679 4.15194 29.4897 2.67444 27.9331C1.22481 26.3482 0.5 24.2115 0.5 21.5229C0.5 19.3154 0.876345 17.2636 1.62904 15.3674C2.4096 13.4713 3.55258 11.943 5.05796 10.7827C6.56334 9.62234 8.41719 9.04217 10.6195 9.04217C12.2085 9.04217 13.6442 9.43839 14.9266 10.2308C16.2089 11.0232 17.1289 12.2543 17.6864 13.9241L19.8609 0H21.6172L16.9338 29.9283H15.1775L15.7211 26.4048C14.9405 27.6218 13.9369 28.5699 12.7103 29.2491C11.4837 29.9283 10.062 30.2679 8.44507 30.2679ZM8.69597 28.6123C10.4801 28.6123 11.9855 28.1171 13.2121 27.1265C14.4387 26.136 15.3587 24.82 15.972 23.1785C16.6132 21.5371 16.9338 19.74 16.9338 17.7872C16.9338 15.4382 16.3623 13.6694 15.2193 12.4807C14.1042 11.2921 12.5431 10.6978 10.5359 10.6978C8.75172 10.6978 7.24634 11.1931 6.01973 12.1836C4.79313 13.1741 3.85923 14.4901 3.21805 16.1316C2.60475 17.7447 2.29809 19.5418 2.29809 21.5229C2.29809 23.8436 2.85564 25.6124 3.97074 26.8294C5.11372 28.018 6.68879 28.6123 8.69597 28.6123Z" fill="#333333"/>
<path d="M2.327 49.063C2.02367 49.063 1.75767 48.9907 1.529 48.846C1.305 48.7013 1.13 48.4983 1.004 48.237C0.882667 47.971 0.822 47.6583 0.822 47.299C0.822 46.935 0.882667 46.6223 1.004 46.361C1.13 46.095 1.305 45.892 1.529 45.752C1.75767 45.6073 2.02367 45.535 2.327 45.535C2.593 45.535 2.82633 45.5933 3.027 45.71C3.23233 45.8267 3.384 45.9877 3.482 46.193V44.065H4.049V49H3.496V48.377C3.398 48.5917 3.24633 48.7597 3.041 48.881C2.83567 49.0023 2.59767 49.063 2.327 49.063ZM2.446 48.608C2.76333 48.608 3.01767 48.496 3.209 48.272C3.40033 48.0433 3.496 47.719 3.496 47.299C3.496 46.8743 3.40033 46.55 3.209 46.326C3.01767 46.102 2.76333 45.99 2.446 45.99C2.124 45.99 1.86733 46.102 1.676 46.326C1.48933 46.55 1.396 46.8743 1.396 47.299C1.396 47.719 1.48933 48.0433 1.676 48.272C1.86733 48.496 2.124 48.608 2.446 48.608ZM6.18405 49.063C5.95072 49.063 5.74072 49.0187 5.55405 48.93C5.37205 48.8367 5.22739 48.7107 5.12005 48.552C5.01272 48.3933 4.95905 48.216 4.95905 48.02C4.95905 47.7727 5.02205 47.5767 5.14805 47.432C5.27872 47.2873 5.49105 47.1847 5.78505 47.124C6.08372 47.0587 6.48972 47.026 7.00305 47.026H7.22705V46.809C7.22705 46.5197 7.16639 46.312 7.04505 46.186C6.92839 46.0553 6.73939 45.99 6.47805 45.99C6.27272 45.99 6.07439 46.0203 5.88305 46.081C5.69172 46.137 5.49572 46.2303 5.29505 46.361L5.09905 45.948C5.27639 45.822 5.49105 45.7217 5.74305 45.647C5.99972 45.5723 6.24472 45.535 6.47805 45.535C6.91672 45.535 7.24105 45.6423 7.45105 45.857C7.66572 46.0717 7.77305 46.4053 7.77305 46.858V49H7.24105V48.412C7.15239 48.6127 7.01472 48.7713 6.82805 48.888C6.64605 49.0047 6.43139 49.063 6.18405 49.063ZM6.27505 48.636C6.55505 48.636 6.78372 48.5403 6.96105 48.349C7.13839 48.153 7.22705 47.9057 7.22705 47.607V47.397H7.01005C6.63205 47.397 6.33339 47.4157 6.11405 47.453C5.89939 47.4857 5.74772 47.5463 5.65905 47.635C5.57505 47.719 5.53305 47.8357 5.53305 47.985C5.53305 48.1763 5.59839 48.3327 5.72905 48.454C5.86439 48.5753 6.04639 48.636 6.27505 48.636ZM8.75497 44.751V44.114H9.45497V44.751H8.75497ZM8.82497 49V45.598H9.39197V49H8.82497ZM11.4949 49.063C11.1496 49.063 10.8883 48.9627 10.7109 48.762C10.5383 48.5567 10.4519 48.2603 10.4519 47.873V44.065H11.0189V47.831C11.0189 48.3303 11.2173 48.58 11.6139 48.58C11.7306 48.58 11.8356 48.566 11.9289 48.538L11.9149 49.014C11.7703 49.0467 11.6303 49.063 11.4949 49.063ZM12.84 50.26L13.421 48.944L11.986 45.598H12.602L13.729 48.356L14.863 45.598H15.458L13.435 50.26H12.84Z" fill="#333333"/>
<path d="M19.5636 49.063C19.2929 49.063 19.0549 49.0023 18.8496 48.881C18.6489 48.7597 18.4972 48.594 18.3946 48.384V49H17.8416V44.065H18.4086V46.186C18.5066 45.9853 18.6582 45.8267 18.8636 45.71C19.0689 45.5933 19.3022 45.535 19.5636 45.535C19.8669 45.535 20.1306 45.6073 20.3546 45.752C20.5832 45.892 20.7582 46.095 20.8796 46.361C21.0056 46.6223 21.0686 46.935 21.0686 47.299C21.0686 47.6583 21.0056 47.971 20.8796 48.237C20.7582 48.4983 20.5832 48.7013 20.3546 48.846C20.1306 48.9907 19.8669 49.063 19.5636 49.063ZM19.4446 48.608C19.7619 48.608 20.0162 48.496 20.2076 48.272C20.3989 48.0433 20.4946 47.719 20.4946 47.299C20.4946 46.8743 20.3989 46.55 20.2076 46.326C20.0162 46.102 19.7619 45.99 19.4446 45.99C19.1272 45.99 18.8729 46.102 18.6816 46.326C18.4902 46.55 18.3946 46.8743 18.3946 47.299C18.3946 47.719 18.4902 48.0433 18.6816 48.272C18.8729 48.496 19.1272 48.608 19.4446 48.608ZM23.4556 49.063C22.919 49.063 22.4943 48.9067 22.1816 48.594C21.869 48.2767 21.7126 47.8473 21.7126 47.306C21.7126 46.956 21.7826 46.648 21.9226 46.382C22.0626 46.1113 22.254 45.9037 22.4966 45.759C22.744 45.6097 23.0286 45.535 23.3506 45.535C23.8126 45.535 24.1743 45.6843 24.4356 45.983C24.697 46.277 24.8276 46.683 24.8276 47.201V47.418H22.2656C22.2843 47.8053 22.3963 48.1017 22.6016 48.307C22.807 48.5077 23.0916 48.608 23.4556 48.608C23.661 48.608 23.857 48.5777 24.0436 48.517C24.2303 48.4517 24.4076 48.3467 24.5756 48.202L24.7716 48.601C24.6176 48.7457 24.4216 48.86 24.1836 48.944C23.9456 49.0233 23.703 49.063 23.4556 49.063ZM23.3646 45.955C23.0426 45.955 22.7883 46.0553 22.6016 46.256C22.415 46.4567 22.3053 46.7203 22.2726 47.047H24.3376C24.3236 46.7017 24.2326 46.4333 24.0646 46.242C23.9013 46.0507 23.668 45.955 23.3646 45.955ZM26.7192 49.063C26.4859 49.063 26.2759 49.0187 26.0892 48.93C25.9072 48.8367 25.7625 48.7107 25.6552 48.552C25.5479 48.3933 25.4942 48.216 25.4942 48.02C25.4942 47.7727 25.5572 47.5767 25.6832 47.432C25.8139 47.2873 26.0262 47.1847 26.3202 47.124C26.6189 47.0587 27.0249 47.026 27.5382 47.026H27.7622V46.809C27.7622 46.5197 27.7015 46.312 27.5802 46.186C27.4635 46.0553 27.2745 45.99 27.0132 45.99C26.8079 45.99 26.6095 46.0203 26.4182 46.081C26.2269 46.137 26.0309 46.2303 25.8302 46.361L25.6342 45.948C25.8115 45.822 26.0262 45.7217 26.2782 45.647C26.5349 45.5723 26.7799 45.535 27.0132 45.535C27.4519 45.535 27.7762 45.6423 27.9862 45.857C28.2009 46.0717 28.3082 46.4053 28.3082 46.858V49H27.7762V48.412C27.6875 48.6127 27.5499 48.7713 27.3632 48.888C27.1812 49.0047 26.9665 49.063 26.7192 49.063ZM26.8102 48.636C27.0902 48.636 27.3189 48.5403 27.4962 48.349C27.6735 48.153 27.7622 47.9057 27.7622 47.607V47.397H27.5452C27.1672 47.397 26.8685 47.4157 26.6492 47.453C26.4345 47.4857 26.2829 47.5463 26.1942 47.635C26.1102 47.719 26.0682 47.8357 26.0682 47.985C26.0682 48.1763 26.1335 48.3327 26.2642 48.454C26.3995 48.5753 26.5815 48.636 26.8102 48.636ZM30.5641 49.063C29.7475 49.063 29.3391 48.6127 29.3391 47.712V45.598H29.9061V47.705C29.9061 48.0083 29.9668 48.2323 30.0881 48.377C30.2141 48.5217 30.4101 48.594 30.6761 48.594C30.9655 48.594 31.2011 48.4983 31.3831 48.307C31.5651 48.111 31.6561 47.852 31.6561 47.53V45.598H32.2231V49H31.6701V48.426C31.5628 48.6313 31.4111 48.79 31.2151 48.902C31.0238 49.0093 30.8068 49.063 30.5641 49.063ZM34.649 49.063C34.2476 49.063 33.9466 48.958 33.746 48.748C33.5453 48.5333 33.445 48.2253 33.445 47.824V46.039H32.78V45.598H33.445V44.555H34.012V45.598H35.09V46.039H34.012V47.768C34.012 48.034 34.068 48.237 34.18 48.377C34.292 48.5123 34.474 48.58 34.726 48.58C34.8006 48.58 34.8753 48.5707 34.95 48.552C35.0246 48.5333 35.0923 48.5147 35.153 48.496L35.251 48.93C35.1903 48.9627 35.1016 48.993 34.985 49.021C34.8683 49.049 34.7563 49.063 34.649 49.063ZM36.1642 50.26L36.7452 48.944L35.3102 45.598H35.9262L37.0532 48.356L38.1872 45.598H38.7822L36.7592 50.26H36.1642Z" fill="#B76E79"/>
</svg>
